<svg id="visual" viewBox="0 0 960 540" width="960" height="540" xmlns="http://www.w3.org/2000/svg" xmlns:xlink="http://www.w3.org/1999/xlink" version="1.1"><rect x="0" y="0" width="960" height="540" fill="#1f1f22"></rect><defs><linearGradient id="grad1_0" x1="43.8%" y1="100%" x2="100%" y2="0%"><stop offset="14.444444444444446%" stop-color="#1f1f22" stop-opacity="1"></stop><stop offset="85.55555555555554%" stop-color="#1f1f22" stop-opacity="1"></stop></linearGradient></defs><defs><linearGradient id="grad2_0" x1="0%" y1="100%" x2="56.3%" y2="0%"><stop offset="14.444444444444446%" stop-color="#1f1f22" stop-opacity="1"></stop><stop offset="85.55555555555554%" stop-color="#1f1f22" stop-opacity="1"></stop></linearGradient></defs><g transform="translate(960, 540)"><path d="M-378 0C-382.4 -45.2 -386.7 -90.3 -359.5 -116.8C-332.3 -143.3 -273.5 -151.1 -241.1 -175.2C-208.7 -199.2 -202.7 -239.3 -178.1 -245.1C-153.5 -250.9 -110.3 -222.3 -77.6 -238.7C-44.8 -255.1 -22.4 -316.6 0 -378L0 0Z" fill="#00C9C8"></path></g><g transform="translate(0, 0)"><path d="M378 0C351.9 35.8 325.7 71.5 291 94.6C256.3 117.6 213 127.8 183.6 133.4C154.3 139 138.8 140 134.6 185.3C130.4 230.5 137.4 320 116.8 359.5C96.2 399 48.1 388.5 0 378L0 0Z" fill="#00C9C8"></path></g></svg>