<svg id="visual" viewBox="0 0 900 600" width="900" height="600" xmlns="http://www.w3.org/2000/svg" xmlns:xlink="http://www.w3.org/1999/xlink" version="1.1"><rect x="0" y="0" width="900" height="600" fill="#1f1f22"></rect><path d="M0 274L21.5 265C43 256 86 238 128.8 234.3C171.7 230.7 214.3 241.3 257.2 252.3C300 263.3 343 274.7 385.8 265.7C428.7 256.7 471.3 227.3 514.2 197.7C557 168 600 138 642.8 119.3C685.7 100.7 728.3 93.3 771.2 122.3C814 151.3 857 216.7 878.5 249.3L900 282L900 0L878.5 0C857 0 814 0 771.2 0C728.3 0 685.7 0 642.8 0C600 0 557 0 514.2 0C471.3 0 428.7 0 385.8 0C343 0 300 0 257.2 0C214.3 0 171.7 0 128.8 0C86 0 43 0 21.5 0L0 0Z" fill="#b01654"></path></svg>