<svg id="visual" viewBox="0 0 960 540" width="960" height="540" xmlns="http://www.w3.org/2000/svg" xmlns:xlink="http://www.w3.org/1999/xlink" version="1.1"><rect x="0" y="0" width="960" height="540" fill="#1f1f22"></rect><path d="M0 372L22.8 360.7C45.7 349.3 91.3 326.7 137 314C182.7 301.3 228.3 298.7 274 314.7C319.7 330.7 365.3 365.3 411.2 377C457 388.7 503 377.3 548.8 362.3C594.7 347.3 640.3 328.7 686 330.2C731.7 331.7 777.3 353.3 823 368C868.7 382.7 914.3 390.3 937.2 394.2L960 398L960 541L937.2 541C914.3 541 868.7 541 823 541C777.3 541 731.7 541 686 541C640.3 541 594.7 541 548.8 541C503 541 457 541 411.2 541C365.3 541 319.7 541 274 541C228.3 541 182.7 541 137 541C91.3 541 45.7 541 22.8 541L0 541Z" fill="#0066FF" stroke-linecap="round" stroke-linejoin="miter"></path></svg>