<svg id="visual" viewBox="0 0 960 540" width="960" height="540" xmlns="http://www.w3.org/2000/svg" xmlns:xlink="http://www.w3.org/1999/xlink" version="1.1"><rect x="0" y="0" width="960" height="540" fill="#1f1f22"></rect><path d="M0 299L32 266.7C64 234.3 128 169.7 192 165.5C256 161.3 320 217.7 384 224.5C448 231.3 512 188.7 576 194.3C640 200 704 254 768 249.3C832 244.7 896 181.3 928 149.7L960 118L960 0L928 0C896 0 832 0 768 0C704 0 640 0 576 0C512 0 448 0 384 0C320 0 256 0 192 0C128 0 64 0 32 0L0 0Z" fill="#0066FF" stroke-linecap="round" stroke-linejoin="miter"></path></svg>